<?xml version="1.0" standalone="no"?>
<!DOCTYPE svg PUBLIC "-//W3C//DTD SVG 20010904//EN"
 "http://www.w3.org/TR/2001/REC-SVG-20010904/DTD/svg10.dtd">
<svg version="1.0" xmlns="http://www.w3.org/2000/svg"
 width="256.000000pt" height="256.000000pt" viewBox="0 0 256.000000 256.000000"
 preserveAspectRatio="xMidYMid meet">
<g transform="translate(0.000000,256.000000) scale(0.100000,-0.100000)"
fill="#000000" stroke="none">
<path d="M1315 2142 c-28 -2 -58 -11 -68 -20 -14 -13 -33 -16 -77 -14 -34 2
-60 -1 -64 -7 -4 -6 -22 -11 -39 -11 -71 0 -150 -29 -189 -70 -20 -21 -50 -41
-65 -44 -23 -5 -208 -120 -250 -156 -7 -5 -16 -10 -22 -10 -13 0 -61 -59 -61
-76 0 -7 -16 -20 -35 -28 -73 -31 -235 -216 -235 -269 0 -11 -21 -43 -47 -72
-112 -122 -147 -179 -122 -197 11 -8 10 -9 -4 -4 -22 7 -35 -20 -18 -37 9 -9
11 -8 5 7 -5 13 -4 17 4 12 17 -10 52 12 52 34 0 10 5 20 12 22 9 3 9 6 0 12
-8 5 -14 -3 -19 -25 -5 -28 -7 -30 -13 -14 -9 25 27 82 42 67 14 -14 38 -3 38
17 -1 14 -3 13 -15 -3 -15 -19 -15 -19 -15 2 0 12 4 22 9 22 5 0 13 9 16 20 4
11 11 18 16 15 5 -4 9 2 9 12 0 15 2 16 10 3 8 -12 10 -11 10 7 0 12 5 25 12
29 7 4 8 3 4 -4 -4 -7 -2 -12 3 -12 6 0 11 10 11 22 0 21 0 21 15 2 17 -22 20
-12 5 17 -7 12 -7 19 -1 19 5 0 13 10 17 22 4 13 14 29 23 36 14 12 14 13 -2
8 -15 -5 -16 -3 -7 15 6 11 16 17 22 13 6 -4 8 1 4 13 -4 13 0 25 10 34 14 11
15 10 12 -6 -1 -10 3 -19 10 -21 7 -1 8 0 2 3 -6 3 -4 16 6 35 13 25 18 28 26
17 8 -12 9 -11 5 1 -6 20 7 37 59 78 43 33 60 41 48 20 -4 -7 -3 -8 4 -4 6 4
8 14 5 23 -5 13 -2 15 16 10 19 -5 22 -2 18 13 -6 22 18 60 37 60 7 0 21 9 31
20 10 11 24 20 30 20 7 0 16 7 19 16 3 8 10 12 16 9 5 -3 10 -1 10 4 0 6 7 11
15 11 8 0 15 5 15 11 0 5 15 16 33 24 17 7 45 25 62 39 30 26 47 28 27 3 -9
-10 -8 -18 2 -33 13 -18 14 -17 10 6 -3 14 0 32 6 40 9 13 11 13 20 0 9 -13
10 -13 10 0 0 8 19 33 41 55 27 27 38 34 34 20 -6 -16 -3 -16 14 5 20 25 20
25 36 5 11 -14 15 -16 14 -5 -3 29 1 41 11 35 6 -4 8 -11 5 -16 -4 -5 -1 -9 4
-9 6 0 11 5 11 11 0 6 8 8 19 4 12 -4 21 0 25 11 5 13 9 14 20 5 11 -9 15 -9
19 1 4 11 6 11 6 0 1 -10 6 -10 23 -1 12 6 44 13 72 14 69 4 68 4 62 14 -3 5
1 11 9 14 10 4 12 1 9 -11 -5 -15 -4 -15 9 1 13 15 29 18 103 16 85 -2 181
-19 217 -40 10 -5 22 -7 27 -4 6 4 10 -1 10 -9 0 -9 7 -16 16 -16 12 0 15 -6
11 -22 -5 -20 -4 -21 6 -6 10 14 17 11 59 -32 27 -27 49 -52 49 -54 0 -3 26
-32 59 -65 33 -33 60 -67 60 -76 0 -8 4 -14 9 -13 5 2 25 -22 46 -52 60 -88
74 -117 64 -129 -6 -8 -5 -8 3 -1 15 13 40 -36 33 -64 -5 -16 -4 -18 4 -6 8
12 12 9 20 -13 6 -16 11 -33 11 -38 0 -5 5 -9 11 -9 6 0 9 -7 5 -15 -3 -8 0
-14 7 -12 6 1 13 -8 15 -20 2 -13 8 -23 13 -23 5 0 9 -6 7 -12 -3 -20 12 -59
22 -53 4 3 11 -7 15 -23 3 -15 17 -51 31 -80 16 -33 23 -61 19 -75 -5 -17 -4
-19 4 -7 9 12 11 11 11 -8 0 -15 4 -21 11 -16 8 5 10 -3 7 -24 -2 -17 -1 -29
4 -26 4 3 8 -4 8 -16 0 -12 -4 -18 -10 -15 -5 3 -10 1 -10 -4 0 -6 7 -11 16
-11 13 0 15 -7 11 -28 -3 -15 -2 -34 3 -41 17 -29 -26 -121 -50 -106 -5 3 -7
0 -5 -8 3 -7 -3 -22 -15 -32 -11 -10 -20 -15 -20 -12 0 3 -24 -16 -52 -43 -29
-28 -57 -50 -61 -50 -12 0 -117 -83 -117 -93 0 -4 -4 -5 -10 -2 -5 3 -10 1
-10 -5 0 -7 -7 -10 -14 -7 -11 4 -13 1 -9 -10 4 -10 2 -14 -4 -10 -5 3 -29
-11 -52 -32 -23 -21 -54 -44 -69 -52 -15 -8 -33 -21 -40 -29 -8 -8 -11 -10 -8
-3 4 6 2 14 -4 18 -5 3 -11 1 -11 -4 -1 -6 -2 -17 -3 -23 -1 -8 -15 -13 -32
-13 -23 0 -30 -4 -26 -14 3 -9 1 -12 -6 -7 -7 4 -12 2 -12 -4 0 -6 -12 -15
-26 -20 -14 -6 -44 -22 -67 -38 -23 -15 -48 -28 -56 -30 -8 -2 -27 -12 -41
-22 -15 -11 -30 -17 -34 -13 -3 3 -6 1 -6 -7 0 -10 -4 -10 -17 1 -15 12 -16
12 -11 -2 5 -12 1 -17 -15 -18 -43 -1 -57 -4 -57 -14 0 -5 -9 -7 -20 -4 -11 3
-23 1 -26 -4 -3 -5 -10 -6 -16 -3 -11 7 -128 -37 -128 -48 0 -4 -6 -5 -14 -2
-8 3 -24 -4 -35 -15 -12 -12 -21 -16 -21 -11 0 6 -5 10 -10 10 -6 0 -9 -3 -8
-7 2 -14 -14 -43 -24 -43 -5 0 -6 4 -3 10 3 6 -1 7 -9 4 -9 -3 -16 -12 -16
-20 0 -8 -4 -14 -10 -14 -5 0 -10 -4 -10 -10 0 -5 7 -10 15 -10 8 0 15 5 15
10 0 6 6 10 13 8 18 -4 88 52 80 66 -4 6 1 5 11 -3 13 -11 20 -11 28 -3 7 7
20 12 30 12 10 0 18 4 18 9 0 12 60 35 86 33 13 -1 26 3 29 9 4 5 15 7 25 4
20 -6 157 46 202 77 14 10 30 18 35 18 5 0 37 20 71 45 34 25 68 45 75 45 8 0
55 30 106 67 51 38 100 73 110 78 21 12 97 72 130 102 13 13 27 23 32 23 4 0
28 17 52 38 24 20 65 55 91 76 25 21 56 55 68 74 20 33 21 40 10 119 -8 57
-27 122 -58 201 -63 158 -237 496 -269 522 -8 7 -15 17 -15 22 0 29 -222 272
-302 331 -33 24 -93 45 -148 52 -16 2 -35 7 -42 11 -14 9 -100 12 -173 6z"/>
<path d="M1287 2073 c-4 -3 -7 -13 -7 -22 1 -13 3 -13 11 2 11 19 8 33 -4 20z"/>
<path d="M1228 2009 c-10 -10 -15 -19 -12 -19 13 0 44 21 44 30 0 15 -13 11
-32 -11z"/>
<path d="M1155 1999 c-4 -6 -5 -12 -2 -15 2 -3 7 2 10 11 7 17 1 20 -8 4z"/>
<path d="M1431 1984 c0 -11 3 -14 6 -6 3 7 2 16 -1 19 -3 4 -6 -2 -5 -13z"/>
<path d="M886 1925 c-3 -8 -1 -15 4 -15 6 0 10 7 10 15 0 8 -2 15 -4 15 -2 0
-6 -7 -10 -15z"/>
<path d="M882 1888 c-7 -7 -12 -16 -12 -21 0 -5 7 -1 16 8 9 9 14 18 12 20 -2
3 -10 -1 -16 -7z"/>
<path d="M1305 1890 c-3 -5 -1 -10 4 -10 6 0 11 5 11 10 0 6 -2 10 -4 10 -3 0
-8 -4 -11 -10z"/>
<path d="M995 1846 c7 -44 24 -91 30 -84 2 2 -5 31 -16 63 -15 46 -18 51 -14
21z"/>
<path d="M784 1852 c2 -21 21 -19 23 3 l3 20 -9 -20 c-6 -16 -9 -17 -13 -5 -3
8 -4 9 -4 2z"/>
<path d="M1371 1844 c0 -11 3 -14 6 -6 3 7 2 16 -1 19 -3 4 -6 -2 -5 -13z"/>
<path d="M1034 1838 c3 -15 26 -23 26 -8 0 6 -4 9 -9 6 -5 -4 -12 -1 -14 4 -3
6 -4 5 -3 -2z"/>
<path d="M1500 1835 c0 -8 2 -15 4 -15 2 0 6 7 10 15 3 8 1 15 -4 15 -6 0 -10
-7 -10 -15z"/>
<path d="M1446 1823 c-6 -14 -5 -15 5 -6 7 7 10 15 7 18 -3 3 -9 -2 -12 -12z"/>
<path d="M660 1804 c0 -8 5 -12 10 -9 6 4 8 11 5 16 -9 14 -15 11 -15 -7z"/>
<path d="M600 1800 c0 -5 5 -10 10 -10 6 0 10 5 10 10 0 6 -4 10 -10 10 -5 0
-10 -4 -10 -10z"/>
<path d="M800 1800 c0 -5 5 -10 10 -10 6 0 10 5 10 10 0 6 -4 10 -10 10 -5 0
-10 -4 -10 -10z"/>
<path d="M1199 1778 c-1 -7 -1 -16 -1 -19 0 -3 -3 -22 -8 -42 -4 -21 -4 -37 1
-37 5 0 9 6 10 13 0 6 2 31 5 55 3 23 3 42 0 42 -3 0 -7 -6 -7 -12z"/>
<path d="M1506 1781 c-4 -7 -5 -15 -2 -18 9 -9 19 4 14 18 -4 11 -6 11 -12 0z"/>
<path d="M1535 1780 c-3 -5 -1 -10 4 -10 6 0 11 5 11 10 0 6 -2 10 -4 10 -3 0
-8 -4 -11 -10z"/>
<path d="M1050 1771 c0 -6 4 -13 10 -16 6 -3 7 1 4 9 -7 18 -14 21 -14 7z"/>
<path d="M525 1759 c-4 -6 -4 -13 -1 -16 3 -4 6 -1 6 6 0 7 5 9 10 6 6 -3 10
-1 10 4 0 14 -17 14 -25 0z"/>
<path d="M811 1744 c0 -11 3 -14 6 -6 3 7 2 16 -1 19 -3 4 -6 -2 -5 -13z"/>
<path d="M1150 1751 c0 -6 5 -13 10 -16 6 -3 10 1 10 9 0 9 -4 16 -10 16 -5 0
-10 -4 -10 -9z"/>
<path d="M1240 1740 c0 -5 5 -10 10 -10 6 0 10 5 10 10 0 6 -4 10 -10 10 -5 0
-10 -4 -10 -10z"/>
<path d="M1516 1737 c3 -10 9 -15 12 -12 3 3 0 11 -7 18 -10 9 -11 8 -5 -6z"/>
<path d="M1070 1720 c0 -5 5 -10 11 -10 5 0 7 5 4 10 -3 6 -8 10 -11 10 -2 0
-4 -4 -4 -10z"/>
<path d="M1571 1715 c-1 -12 -6 -26 -13 -33 -9 -9 -8 -12 4 -12 23 0 30 14 19
42 -9 21 -10 21 -10 3z"/>
<path d="M1161 1704 c0 -11 3 -14 6 -6 3 7 2 16 -1 19 -3 4 -6 -2 -5 -13z"/>
<path d="M1320 1699 c0 -5 5 -7 10 -4 6 3 10 8 10 11 0 2 -4 4 -10 4 -5 0 -10
-5 -10 -11z"/>
<path d="M1610 1699 c0 -5 5 -7 10 -4 6 3 10 8 10 11 0 2 -4 4 -10 4 -5 0 -10
-5 -10 -11z"/>
<path d="M1100 1689 c0 -8 7 -23 15 -33 15 -19 15 -19 15 1 0 11 -7 26 -15 33
-12 10 -15 10 -15 -1z"/>
<path d="M988 1664 c5 -29 8 -30 15 -5 3 11 -1 22 -8 24 -8 4 -10 -3 -7 -19z"/>
<path d="M1245 1679 c-4 -6 -5 -12 -2 -15 2 -3 7 2 10 11 7 17 1 20 -8 4z"/>
<path d="M961 1664 c0 -11 3 -14 6 -6 3 7 2 16 -1 19 -3 4 -6 -2 -5 -13z"/>
<path d="M1056 1667 c3 -10 9 -15 12 -12 3 3 0 11 -7 18 -10 9 -11 8 -5 -6z"/>
<path d="M1156 1654 c-4 -14 -5 -28 -3 -31 3 -2 8 8 11 23 4 14 5 28 3 31 -3
2 -8 -8 -11 -23z"/>
<path d="M1660 1668 c0 -9 7 -19 16 -22 15 -6 15 -4 3 11 -7 10 -15 20 -16 22
-2 2 -3 -3 -3 -11z"/>
<path d="M1801 1664 c0 -11 3 -14 6 -6 3 7 2 16 -1 19 -3 4 -6 -2 -5 -13z"/>
<path d="M1021 1644 c0 -11 3 -14 6 -6 3 7 2 16 -1 19 -3 4 -6 -2 -5 -13z"/>
<path d="M1400 1652 c0 -5 7 -9 15 -9 8 0 12 4 9 9 -3 4 -9 8 -15 8 -5 0 -9
-4 -9 -8z"/>
<path d="M1531 1644 c0 -11 3 -14 6 -6 3 7 2 16 -1 19 -3 4 -6 -2 -5 -13z"/>
<path d="M1731 1634 c0 -11 3 -14 6 -6 3 7 2 16 -1 19 -3 4 -6 -2 -5 -13z"/>
<path d="M1361 1614 c0 -11 3 -14 6 -6 3 7 2 16 -1 19 -3 4 -6 -2 -5 -13z"/>
<path d="M1417 1611 c-4 -17 -3 -21 5 -13 5 5 8 16 6 23 -3 8 -7 3 -11 -10z"/>
<path d="M1159 1603 c-10 -11 -10 -14 -1 -9 7 4 12 2 12 -7 0 -8 7 -21 17 -28
15 -13 15 -12 0 17 -9 17 -13 34 -10 38 4 3 4 6 1 6 -3 0 -12 -8 -19 -17z"/>
<path d="M1216 1597 c-8 -31 -7 -39 3 -33 12 8 21 45 11 51 -4 3 -10 -5 -14
-18z"/>
<path d="M1057 1589 c4 -13 8 -18 11 -10 2 7 -1 18 -6 23 -8 8 -9 4 -5 -13z"/>
<path d="M1515 1600 c-3 -5 -1 -10 4 -10 6 0 11 5 11 10 0 6 -2 10 -4 10 -3 0
-8 -4 -11 -10z"/>
<path d="M1091 1584 c0 -11 3 -14 6 -6 3 7 2 16 -1 19 -3 4 -6 -2 -5 -13z"/>
<path d="M1294 1540 c0 -36 2 -55 4 -42 2 12 8 20 13 17 12 -8 12 18 0 31 -5
5 -11 20 -13 34 -2 14 -4 -4 -4 -40z"/>
<path d="M1700 1590 c0 -5 5 -10 10 -10 6 0 10 5 10 10 0 6 -4 10 -10 10 -5 0
-10 -4 -10 -10z"/>
<path d="M385 1580 c3 -5 8 -10 11 -10 2 0 4 5 4 10 0 6 -5 10 -11 10 -5 0 -7
-4 -4 -10z"/>
<path d="M1351 1574 c0 -11 3 -14 6 -6 3 7 2 16 -1 19 -3 4 -6 -2 -5 -13z"/>
<path d="M1560 1570 c0 -5 5 -10 10 -10 6 0 10 5 10 10 0 6 -4 10 -10 10 -5 0
-10 -4 -10 -10z"/>
<path d="M1390 1555 c0 -8 5 -15 10 -15 6 0 10 7 10 15 0 8 -4 15 -10 15 -5 0
-10 -7 -10 -15z"/>
<path d="M1476 1554 c-4 -9 -4 -19 -1 -22 2 -3 7 3 11 12 4 9 4 19 1 22 -2 3
-7 -3 -11 -12z"/>
<path d="M1680 1560 c0 -7 -9 -9 -22 -5 -20 5 -21 4 -5 -5 11 -7 23 -8 33 -2
11 6 13 11 5 16 -6 4 -11 2 -11 -4z"/>
<path d="M1046 1535 c-3 -8 -1 -15 4 -15 6 0 10 7 10 15 0 8 -2 15 -4 15 -2 0
-6 -7 -10 -15z"/>
<path d="M1160 1541 c0 -5 5 -13 10 -16 6 -3 10 -2 10 4 0 5 -4 13 -10 16 -5
3 -10 2 -10 -4z"/>
<path d="M1211 1534 c0 -11 3 -14 6 -6 3 7 2 16 -1 19 -3 4 -6 -2 -5 -13z"/>
<path d="M1261 1524 c0 -11 3 -14 6 -6 3 7 2 16 -1 19 -3 4 -6 -2 -5 -13z"/>
<path d="M1700 1529 c-14 -4 -18 -7 -8 -8 9 -1 24 -8 32 -17 17 -16 19 -10 8
17 -5 11 -14 13 -32 8z"/>
<path d="M740 1526 c0 -2 7 -7 16 -10 8 -3 12 -2 9 4 -6 10 -25 14 -25 6z"/>
<path d="M1105 1520 c-3 -5 -1 -10 4 -10 6 0 11 5 11 10 0 6 -2 10 -4 10 -3 0
-8 -4 -11 -10z"/>
<path d="M1750 1520 c0 -5 5 -10 11 -10 5 0 7 5 4 10 -3 6 -8 10 -11 10 -2 0
-4 -4 -4 -10z"/>
<path d="M1241 1510 c0 -8 4 -24 9 -35 5 -13 9 -14 9 -5 0 8 -4 24 -9 35 -5
13 -9 14 -9 5z"/>
<path d="M1390 1515 c0 -5 5 -17 10 -25 5 -8 10 -10 10 -5 0 6 -5 17 -10 25
-5 8 -10 11 -10 5z"/>
<path d="M1642 1495 c0 -16 2 -22 5 -12 2 9 2 23 0 30 -3 6 -5 -1 -5 -18z"/>
<path d="M1865 1510 c3 -5 8 -10 11 -10 2 0 4 5 4 10 0 6 -5 10 -11 10 -5 0
-7 -4 -4 -10z"/>
<path d="M1191 1494 c0 -11 3 -14 6 -6 3 7 2 16 -1 19 -3 4 -6 -2 -5 -13z"/>
<path d="M1605 1500 c3 -5 8 -10 11 -10 2 0 4 5 4 10 0 6 -5 10 -11 10 -5 0
-7 -4 -4 -10z"/>
<path d="M1446 1459 c3 -44 9 -57 22 -44 4 4 2 9 -4 12 -6 2 -9 16 -6 32 2 16
0 31 -6 35 -5 3 -8 -11 -6 -35z"/>
<path d="M1767 1487 c-4 -11 -1 -24 8 -33 8 -8 21 -25 30 -36 8 -12 17 -19 21
-15 3 3 0 13 -7 21 -30 33 -37 44 -41 62 -3 18 -4 18 -11 1z"/>
<path d="M1810 1490 c0 -5 5 -10 11 -10 5 0 7 5 4 10 -3 6 -8 10 -11 10 -2 0
-4 -4 -4 -10z"/>
<path d="M1221 1474 c0 -11 3 -14 6 -6 3 7 2 16 -1 19 -3 4 -6 -2 -5 -13z"/>
<path d="M782 1460 c0 -14 2 -19 5 -12 2 6 2 18 0 25 -3 6 -5 1 -5 -13z"/>
<path d="M1660 1459 c0 -11 4 -18 10 -14 5 3 7 12 3 20 -7 21 -13 19 -13 -6z"/>
<path d="M1880 1460 c0 -5 5 -10 10 -10 6 0 10 5 10 10 0 6 -4 10 -10 10 -5 0
-10 -4 -10 -10z"/>
<path d="M1276 1445 c-9 -26 -7 -32 5 -12 6 10 9 21 6 23 -2 3 -7 -2 -11 -11z"/>
<path d="M1843 1445 c0 -8 4 -12 9 -9 4 3 8 9 8 15 0 5 -4 9 -8 9 -5 0 -9 -7
-9 -15z"/>
<path d="M1540 1446 c0 -2 7 -7 16 -10 8 -3 12 -2 9 4 -6 10 -25 14 -25 6z"/>
<path d="M1685 1440 c-3 -5 -2 -10 4 -10 5 0 13 5 16 10 3 6 2 10 -4 10 -5 0
-13 -4 -16 -10z"/>
<path d="M1311 1423 c0 -6 -4 -20 -7 -30 -5 -14 -4 -15 5 -7 7 7 11 20 8 30
-3 11 -5 14 -6 7z"/>
<path d="M1160 1403 c0 -12 5 -25 10 -28 6 -4 8 -10 5 -15 -3 -5 -1 -11 5 -15
15 -9 12 18 -5 51 -13 26 -15 27 -15 7z"/>
<path d="M1190 1409 c0 -5 5 -7 10 -4 6 3 10 8 10 11 0 2 -4 4 -10 4 -5 0 -10
-5 -10 -11z"/>
<path d="M580 1406 c0 -2 7 -7 16 -10 8 -3 12 -2 9 4 -6 10 -25 14 -25 6z"/>
<path d="M1081 1394 c0 -11 3 -14 6 -6 3 7 2 16 -1 19 -3 4 -6 -2 -5 -13z"/>
<path d="M951 1384 c0 -11 3 -14 6 -6 3 7 2 16 -1 19 -3 4 -6 -2 -5 -13z"/>
<path d="M1380 1369 c-7 -11 -10 -23 -7 -25 2 -2 9 7 15 21 14 30 7 33 -8 4z"/>
<path d="M1461 1374 c0 -11 3 -14 6 -6 3 7 2 16 -1 19 -3 4 -6 -2 -5 -13z"/>
<path d="M1490 1375 c-7 -9 -11 -17 -9 -20 3 -2 10 5 17 15 14 24 10 26 -8 5z"/>
<path d="M1640 1381 c0 -6 4 -13 10 -16 6 -3 7 1 4 9 -7 18 -14 21 -14 7z"/>
<path d="M1750 1375 c5 -7 6 -16 2 -20 -4 -5 -1 -5 6 -1 17 10 15 33 -3 33
-10 0 -12 -4 -5 -12z"/>
<path d="M1120 1372 c0 -8 -5 -10 -12 -6 -7 4 -5 -1 4 -11 21 -22 34 -14 19
12 -6 11 -11 13 -11 5z"/>
<path d="M1210 1366 c0 -16 18 -31 27 -22 3 3 -2 12 -11 21 -14 14 -16 14 -16
1z"/>
<path d="M1055 1360 c-3 -5 1 -10 10 -10 9 0 13 5 10 10 -3 6 -8 10 -10 10 -2
0 -7 -4 -10 -10z"/>
<path d="M1407 1351 c-4 -17 -3 -21 5 -13 5 5 8 16 6 23 -3 8 -7 3 -11 -10z"/>
<path d="M1841 1354 c0 -11 3 -14 6 -6 3 7 2 16 -1 19 -3 4 -6 -2 -5 -13z"/>
<path d="M1691 1344 c0 -11 3 -14 6 -6 3 7 2 16 -1 19 -3 4 -6 -2 -5 -13z"/>
<path d="M1865 1350 c-3 -5 -1 -10 4 -10 6 0 11 5 11 10 0 6 -2 10 -4 10 -3 0
-8 -4 -11 -10z"/>
<path d="M1372 1300 c0 -14 2 -19 5 -12 2 6 2 18 0 25 -3 6 -5 1 -5 -13z"/>
<path d="M1850 1281 c0 -23 2 -41 4 -41 8 0 12 71 4 76 -4 3 -8 -13 -8 -35z"/>
<path d="M871 1294 c0 -11 3 -14 6 -6 3 7 2 16 -1 19 -3 4 -6 -2 -5 -13z"/>
<path d="M154 1289 c-3 -6 -1 -16 4 -21 8 -8 11 -5 9 11 -1 24 -3 25 -13 10z"/>
<path d="M2000 1290 c0 -5 5 -10 10 -10 6 0 10 5 10 10 0 6 -4 10 -10 10 -5 0
-10 -4 -10 -10z"/>
<path d="M190 1255 c0 -14 2 -25 4 -25 2 0 6 11 8 25 3 14 1 25 -3 25 -5 0 -9
-11 -9 -25z"/>
<path d="M1112 1260 c0 -14 2 -19 5 -12 2 6 2 18 0 25 -3 6 -5 1 -5 -13z"/>
<path d="M1693 1265 c-3 -9 -3 -18 -1 -21 3 -3 8 4 11 16 6 23 -1 27 -10 5z"/>
<path d="M1991 1254 c0 -11 3 -14 6 -6 3 7 2 16 -1 19 -3 4 -6 -2 -5 -13z"/>
<path d="M881 1244 c0 -11 3 -14 6 -6 3 7 2 16 -1 19 -3 4 -6 -2 -5 -13z"/>
<path d="M1383 1245 c-9 -24 1 -27 15 -5 8 13 8 20 2 20 -6 0 -13 -7 -17 -15z"/>
<path d="M2191 1244 c0 -11 3 -14 6 -6 3 7 2 16 -1 19 -3 4 -6 -2 -5 -13z"/>
<path d="M1031 1234 c0 -11 3 -14 6 -6 3 7 2 16 -1 19 -3 4 -6 -2 -5 -13z"/>
<path d="M1151 1234 c0 -11 3 -14 6 -6 3 7 2 16 -1 19 -3 4 -6 -2 -5 -13z"/>
<path d="M1775 1230 c3 -5 8 -10 11 -10 2 0 4 5 4 10 0 6 -5 10 -11 10 -5 0
-7 -4 -4 -10z"/>
<path d="M286 1203 c-6 -14 -5 -15 5 -6 7 7 10 15 7 18 -3 3 -9 -2 -12 -12z"/>
<path d="M1416 1205 c-3 -9 -6 -24 -5 -33 0 -9 5 -4 10 12 9 32 6 48 -5 21z"/>
<path d="M1507 1209 c7 -7 15 -10 18 -7 3 3 -2 9 -12 12 -14 6 -15 5 -6 -5z"/>
<path d="M1710 1196 c4 -4 16 -4 26 2 16 9 14 10 -8 9 -15 -1 -23 -6 -18 -11z"/>
<path d="M355 1189 c-4 -6 -5 -12 -2 -15 2 -3 7 2 10 11 7 17 1 20 -8 4z"/>
<path d="M290 1158 c-12 -22 -12 -22 6 -6 10 10 15 20 12 24 -4 3 -12 -5 -18
-18z"/>
<path d="M391 1164 c0 -11 3 -14 6 -6 3 7 2 16 -1 19 -3 4 -6 -2 -5 -13z"/>
<path d="M1615 1170 c-3 -5 -1 -10 4 -10 6 0 11 5 11 10 0 6 -2 10 -4 10 -3 0
-8 -4 -11 -10z"/>
<path d="M1790 1160 c0 -5 10 -10 23 -10 18 0 19 2 7 10 -19 13 -30 13 -30 0z"/>
<path d="M100 1149 c0 -5 5 -7 10 -4 6 3 10 8 10 11 0 2 -4 4 -10 4 -5 0 -10
-5 -10 -11z"/>
<path d="M1728 1153 c7 -3 16 -2 19 1 4 3 -2 6 -13 5 -11 0 -14 -3 -6 -6z"/>
<path d="M1906 1152 c-5 -9 -3 -19 7 -29 11 -12 16 -12 22 -2 5 7 4 10 -3 5
-6 -4 -12 3 -14 16 -2 17 -5 20 -12 10z"/>
<path d="M250 1140 c0 -5 5 -10 10 -10 6 0 10 5 10 10 0 6 -4 10 -10 10 -5 0
-10 -4 -10 -10z"/>
<path d="M1111 1124 c0 -11 3 -14 6 -6 3 7 2 16 -1 19 -3 4 -6 -2 -5 -13z"/>
<path d="M231 1123 c0 -4 4 -17 9 -28 8 -19 9 -19 9 2 1 12 -3 25 -9 28 -5 3
-10 3 -9 -2z"/>
<path d="M123 1105 c-3 -9 -3 -18 -1 -21 3 -3 8 4 11 16 6 23 -1 27 -10 5z"/>
<path d="M1980 1110 c0 -7 8 -19 18 -27 15 -13 9 -14 -53 -10 -82 5 -56 -9 29
-17 63 -5 71 5 31 43 -14 13 -25 18 -25 11z"/>
<path d="M2076 1108 c3 -4 9 -8 15 -8 5 0 9 4 9 8 0 5 -7 9 -15 9 -8 0 -12 -4
-9 -9z"/>
<path d="M1700 1089 c0 -11 4 -18 10 -14 5 3 7 12 3 20 -7 21 -13 19 -13 -6z"/>
<path d="M270 1092 c0 -5 7 -9 15 -9 8 0 15 4 15 9 0 4 -7 8 -15 8 -8 0 -15
-4 -15 -8z"/>
<path d="M1580 1070 c0 -5 5 -10 10 -10 6 0 10 5 10 10 0 6 -4 10 -10 10 -5 0
-10 -4 -10 -10z"/>
<path d="M1628 1073 c7 -3 16 -2 19 1 4 3 -2 6 -13 5 -11 0 -14 -3 -6 -6z"/>
<path d="M2237 1060 c8 -30 21 -34 15 -5 -2 14 -8 25 -12 25 -5 0 -6 -9 -3
-20z"/>
<path d="M1505 1060 c-13 -6 -15 -9 -5 -9 8 0 22 4 30 9 18 12 2 12 -25 0z"/>
<path d="M106 1045 c-3 -8 -1 -15 4 -15 6 0 10 7 10 15 0 8 -2 15 -4 15 -2 0
-6 -7 -10 -15z"/>
<path d="M252 1040 c0 -14 2 -19 5 -12 2 6 2 18 0 25 -3 6 -5 1 -5 -13z"/>
<path d="M280 1055 c0 -5 5 -17 10 -25 5 -8 10 -10 10 -5 0 6 -5 17 -10 25 -5
8 -10 11 -10 5z"/>
<path d="M1439 1056 c-2 -2 -31 -6 -64 -9 -125 -12 -175 -20 -175 -29 0 -6 16
-7 38 -4 63 11 105 17 152 23 49 6 96 21 69 22 -9 1 -18 -1 -20 -3z"/>
<path d="M2125 1040 c3 -5 14 -10 23 -10 15 0 15 2 2 10 -20 13 -33 13 -25 0z"/>
<path d="M1595 1030 c-3 -5 0 -10 7 -11 7 0 23 -2 36 -5 12 -2 22 0 22 4 0 17
-13 22 -27 11 -9 -9 -13 -8 -13 0 0 14 -17 15 -25 1z"/>
<path d="M1700 1024 c0 -8 5 -12 10 -9 6 4 8 11 5 16 -9 14 -15 11 -15 -7z"/>
<path d="M1730 1026 c0 -9 5 -16 10 -16 6 0 10 4 10 9 0 6 -4 13 -10 16 -5 3
-10 -1 -10 -9z"/>
<path d="M2170 1030 c0 -5 5 -10 10 -10 6 0 10 5 10 10 0 6 -4 10 -10 10 -5 0
-10 -4 -10 -10z"/>
<path d="M1546 1014 c-9 -24 -2 -26 12 -4 7 11 8 20 3 20 -5 0 -12 -7 -15 -16z"/>
<path d="M1675 1019 c-4 -6 -5 -12 -2 -15 2 -3 7 2 10 11 7 17 1 20 -8 4z"/>
<path d="M390 1009 c0 -5 5 -7 10 -4 6 3 10 8 10 11 0 2 -4 4 -10 4 -5 0 -10
-5 -10 -11z"/>
<path d="M1087 1009 c-10 -6 -24 -9 -31 -6 -6 3 -23 -1 -37 -9 -30 -16 -16
-17 51 -3 27 6 50 15 50 20 0 12 -10 11 -33 -2z"/>
<path d="M1150 1010 c0 -5 4 -10 9 -10 6 0 13 5 16 10 3 6 -1 10 -9 10 -9 0
-16 -4 -16 -10z"/>
<path d="M1476 1012 c-3 -5 8 -6 25 -4 16 2 29 6 29 8 0 8 -49 4 -54 -4z"/>
<path d="M2008 1013 c7 -3 16 -2 19 1 4 3 -2 6 -13 5 -11 0 -14 -3 -6 -6z"/>
<path d="M2042 1000 c0 -14 2 -19 5 -12 2 6 2 18 0 25 -3 6 -5 1 -5 -13z"/>
<path d="M960 990 c0 -5 -11 -10 -24 -10 -29 0 -56 -9 -56 -20 0 -4 20 -3 45
3 26 6 45 16 45 24 0 7 -2 13 -5 13 -3 0 -5 -4 -5 -10z"/>
<path d="M1430 990 c8 -5 22 -9 30 -9 10 0 8 3 -5 9 -27 12 -43 12 -25 0z"/>
<path d="M1326 976 c9 -23 30 -26 30 -5 0 11 -7 19 -18 19 -11 0 -15 -5 -12
-14z"/>
<path d="M1676 982 c-3 -5 1 -9 9 -9 8 0 15 4 15 9 0 4 -4 8 -9 8 -6 0 -12 -4
-15 -8z"/>
<path d="M2021 974 c0 -11 3 -14 6 -6 3 7 2 16 -1 19 -3 4 -6 -2 -5 -13z"/>
<path d="M2076 977 c3 -10 9 -15 12 -12 3 3 0 11 -7 18 -10 9 -11 8 -5 -6z"/>
<path d="M108 966 c-10 -7 -18 -19 -18 -27 1 -10 4 -9 11 3 5 10 16 15 24 12
9 -4 15 0 15 10 0 19 -9 20 -32 2z"/>
<path d="M1220 955 c-7 -14 -11 -28 -8 -31 4 -3 9 4 13 15 3 12 11 21 16 21 5
0 9 5 9 10 0 18 -17 10 -30 -15z"/>
<path d="M1290 969 c0 -5 5 -7 10 -4 6 3 10 8 10 11 0 2 -4 4 -10 4 -5 0 -10
-5 -10 -11z"/>
<path d="M1720 971 c0 -5 7 -12 16 -15 14 -5 15 -4 4 9 -14 17 -20 19 -20 6z"/>
<path d="M240 960 c0 -5 5 -10 11 -10 5 0 7 5 4 10 -3 6 -8 10 -11 10 -2 0 -4
-4 -4 -10z"/>
<path d="M1532 950 c0 -14 2 -19 5 -12 2 6 2 18 0 25 -3 6 -5 1 -5 -13z"/>
<path d="M1560 959 c0 -5 5 -7 10 -4 6 3 10 8 10 11 0 2 -4 4 -10 4 -5 0 -10
-5 -10 -11z"/>
<path d="M1595 960 c-3 -5 1 -10 10 -10 9 0 13 5 10 10 -3 6 -8 10 -10 10 -2
0 -7 -4 -10 -10z"/>
<path d="M1810 966 c0 -2 7 -7 16 -10 8 -3 12 -2 9 4 -6 10 -25 14 -25 6z"/>
<path d="M360 944 c0 -8 5 -12 10 -9 6 4 8 11 5 16 -9 14 -15 11 -15 -7z"/>
<path d="M799 943 c-13 -15 -12 -15 9 -4 23 12 28 21 13 21 -5 0 -15 -7 -22
-17z"/>
<path d="M840 950 c0 -5 7 -7 15 -4 8 4 15 8 15 10 0 2 -7 4 -15 4 -8 0 -15
-4 -15 -10z"/>
<path d="M1017 953 c-2 -5 2 -18 8 -31 10 -19 14 -20 18 -8 11 28 -13 63 -26
39z"/>
<path d="M1918 953 c7 -3 16 -2 19 1 4 3 -2 6 -13 5 -11 0 -14 -3 -6 -6z"/>
<path d="M151 934 c0 -11 3 -14 6 -6 3 7 2 16 -1 19 -3 4 -6 -2 -5 -13z"/>
<path d="M730 923 c0 -12 3 -14 8 -7 4 7 16 14 27 17 15 4 14 5 -7 6 -21 1
-28 -4 -28 -16z"/>
<path d="M1073 925 c-3 -9 -3 -18 -1 -21 3 -3 8 4 11 16 6 23 -1 27 -10 5z"/>
<path d="M1847 933 c-4 -3 -7 -16 -6 -27 0 -19 1 -19 10 3 10 24 8 36 -4 24z"/>
<path d="M71 914 c-1 -12 -11 -26 -23 -32 -23 -11 -23 -11 2 -8 25 3 36 24 27
49 -3 6 -6 3 -6 -9z"/>
<path d="M845 919 c-10 -15 3 -25 16 -12 7 7 7 13 1 17 -6 3 -14 1 -17 -5z"/>
<path d="M1561 914 c0 -11 3 -14 6 -6 3 7 2 16 -1 19 -3 4 -6 -2 -5 -13z"/>
<path d="M598 911 c-26 -4 -50 -10 -53 -13 -8 -8 68 1 110 12 35 10 9 10 -57
1z"/>
<path d="M893 913 c-16 -6 -17 -33 -2 -33 5 0 8 4 5 9 -4 5 0 11 6 14 7 2 11
7 8 9 -3 3 -11 3 -17 1z"/>
<path d="M1877 913 c-4 -3 -7 -11 -7 -17 0 -6 5 -5 12 2 6 6 9 14 7 17 -3 3
-9 2 -12 -2z"/>
<path d="M405 899 c-27 -3 -45 -7 -40 -9 12 -3 119 1 123 5 8 7 -38 10 -83 4z"/>
<path d="M1188 870 c-9 -22 -15 -40 -13 -40 8 0 36 61 33 70 -2 5 -11 -9 -20
-30z"/>
<path d="M1741 894 c0 -11 3 -14 6 -6 3 7 2 16 -1 19 -3 4 -6 -2 -5 -13z"/>
<path d="M286 891 c-4 -6 -14 -8 -24 -5 -11 4 -13 3 -5 -3 8 -6 9 -22 2 -57
-12 -67 -4 -70 11 -4 7 29 18 56 24 60 6 4 8 10 4 13 -3 4 -9 2 -12 -4z"/>
<path d="M316 891 c-4 -5 1 -8 9 -7 21 3 31 16 12 16 -9 0 -18 -4 -21 -9z"/>
<path d="M800 890 c0 -6 -4 -9 -9 -5 -6 3 -9 -3 -8 -13 0 -10 6 -19 13 -19 7
0 10 7 6 15 -3 10 -1 13 6 8 7 -4 12 -3 12 3 0 5 -4 13 -10 16 -5 3 -10 1 -10
-5z"/>
<path d="M1236 883 c-6 -14 -5 -15 5 -6 7 7 10 15 7 18 -3 3 -9 -2 -12 -12z"/>
<path d="M105 880 c-3 -5 -1 -10 4 -10 6 0 11 5 11 10 0 6 -2 10 -4 10 -3 0
-8 -4 -11 -10z"/>
<path d="M163 883 c15 -2 39 -2 55 0 15 2 2 4 -28 4 -30 0 -43 -2 -27 -4z"/>
<path d="M695 880 c-11 -5 -15 -9 -8 -9 6 -1 13 -11 15 -23 3 -19 5 -17 9 10
3 17 5 32 5 31 -1 0 -10 -4 -21 -9z"/>
<path d="M749 883 c-22 -5 -30 -60 -12 -75 12 -9 13 -7 8 15 -5 20 -3 27 7 27
7 0 14 9 15 20 1 11 1 19 0 19 -1 -1 -9 -3 -18 -6z"/>
<path d="M0 869 c0 -5 5 -7 10 -4 5 3 10 8 10 11 0 2 -4 4 -10 4 -5 0 -10 -5
-10 -11z"/>
<path d="M487 866 c-4 -10 -5 -21 -2 -24 9 -9 17 6 13 25 -3 17 -4 17 -11 -1z"/>
<path d="M645 871 c-3 -6 -16 -11 -27 -11 -26 0 -19 -9 11 -15 13 -2 24 2 28
11 7 18 -2 30 -12 15z"/>
<path d="M1523 865 c-3 -9 -3 -18 -1 -21 3 -3 8 4 11 16 6 23 -1 27 -10 5z"/>
<path d="M546 853 c-6 -14 -5 -15 5 -6 7 7 10 15 7 18 -3 3 -9 -2 -12 -12z"/>
<path d="M51 833 c-1 -13 -6 -23 -13 -23 -6 0 -9 -3 -5 -6 13 -13 34 11 26 31
-7 19 -8 19 -8 -2z"/>
<path d="M1910 829 c0 -5 5 -7 10 -4 6 3 10 8 10 11 0 2 -4 4 -10 4 -5 0 -10
-5 -10 -11z"/>
<path d="M430 819 c0 -5 5 -7 10 -4 6 3 10 8 10 11 0 2 -4 4 -10 4 -5 0 -10
-5 -10 -11z"/>
<path d="M1198 812 c-3 -11 0 -19 7 -19 7 0 10 8 7 19 -2 10 -6 18 -7 18 -1 0
-5 -8 -7 -18z"/>
<path d="M1530 818 c0 -9 -6 -19 -12 -21 -10 -4 -10 -6 0 -6 14 -1 28 26 18
36 -3 4 -6 -1 -6 -9z"/>
<path d="M507 813 c-4 -3 -7 -18 -7 -31 0 -32 13 -20 15 13 1 28 1 28 -8 18z"/>
<path d="M1147 797 c-9 -11 -17 -28 -17 -36 0 -24 -71 -122 -83 -114 -6 4 -7
1 -2 -7 11 -18 52 31 95 112 34 62 36 81 7 45z"/>
<path d="M390 800 c-9 -6 -10 -10 -3 -10 6 0 15 5 18 10 8 12 4 12 -15 0z"/>
<path d="M810 794 c0 -8 5 -12 10 -9 6 4 8 11 5 16 -9 14 -15 11 -15 -7z"/>
<path d="M940 784 c-11 -27 -13 -51 -5 -42 8 8 25 68 19 68 -2 0 -9 -12 -14
-26z"/>
<path d="M722 780 c0 -14 2 -19 5 -12 2 6 2 18 0 25 -3 6 -5 1 -5 -13z"/>
<path d="M290 765 c0 -8 4 -15 10 -15 5 0 7 7 4 15 -4 8 -8 15 -10 15 -2 0 -4
-7 -4 -15z"/>
<path d="M446 754 c-4 -14 -5 -28 -3 -31 3 -2 8 8 11 23 4 14 5 28 3 31 -3 2
-8 -8 -11 -23z"/>
<path d="M675 771 c-3 -5 -1 -12 5 -16 5 -3 10 1 10 9 0 18 -6 21 -15 7z"/>
<path d="M1490 776 c0 -2 7 -6 15 -10 8 -3 15 -1 15 4 0 6 -7 10 -15 10 -8 0
-15 -2 -15 -4z"/>
<path d="M570 759 c0 -5 5 -7 10 -4 6 3 10 8 10 11 0 2 -4 4 -10 4 -5 0 -10
-5 -10 -11z"/>
<path d="M236 742 c-4 -13 -12 -20 -19 -16 -8 5 -8 2 1 -7 16 -17 36 1 30 27
-4 17 -5 16 -12 -4z"/>
<path d="M61 734 c0 -11 3 -14 6 -6 3 7 2 16 -1 19 -3 4 -6 -2 -5 -13z"/>
<path d="M1170 743 c0 -6 8 -17 18 -24 16 -13 16 -13 2 6 -8 11 -16 22 -17 24
-2 2 -3 0 -3 -6z"/>
<path d="M310 726 c0 -2 7 -7 16 -10 8 -3 12 -2 9 4 -6 10 -25 14 -25 6z"/>
<path d="M1501 695 c-11 -19 -17 -35 -13 -35 5 0 16 16 25 35 9 19 15 35 13
35 -2 0 -13 -16 -25 -35z"/>
<path d="M1045 696 c0 -13 4 -28 8 -32 4 -5 5 0 1 10 -5 14 -4 17 5 11 10 -6
11 -3 2 14 -15 27 -17 26 -16 -3z"/>
<path d="M1463 705 c-9 -24 1 -27 15 -5 8 13 8 20 2 20 -6 0 -13 -7 -17 -15z"/>
<path d="M217 693 c-4 -3 -7 -11 -7 -17 0 -6 5 -5 12 2 6 6 9 14 7 17 -3 3 -9
2 -12 -2z"/>
<path d="M660 687 c0 -9 -5 -17 -11 -17 -6 0 -9 -6 -6 -14 3 -8 1 -16 -6 -19
-8 -2 -8 -5 0 -10 12 -8 40 60 29 70 -3 4 -6 -1 -6 -10z"/>
<path d="M1160 690 c0 -5 5 -10 10 -10 6 0 10 5 10 10 0 6 -4 10 -10 10 -5 0
-10 -4 -10 -10z"/>
<path d="M271 674 c0 -11 3 -14 6 -6 3 7 2 16 -1 19 -3 4 -6 -2 -5 -13z"/>
<path d="M406 651 c-9 -23 -15 -47 -13 -54 3 -7 6 -4 6 6 1 10 8 29 17 42 9
13 14 29 12 35 -2 7 -12 -7 -22 -29z"/>
<path d="M450 677 c0 -7 7 -22 15 -33 13 -17 14 -16 4 14 -11 33 -19 41 -19
19z"/>
<path d="M191 658 c0 -10 -4 -18 -8 -18 -5 0 -16 -14 -25 -30 -9 -17 -13 -30
-8 -30 6 0 10 4 10 8 0 5 9 18 21 30 11 13 18 30 16 40 -4 16 -5 16 -6 0z"/>
<path d="M1110 666 c0 -2 7 -9 15 -16 12 -10 15 -10 15 4 0 9 -7 16 -15 16 -8
0 -15 -2 -15 -4z"/>
<path d="M676 645 c-3 -9 -6 -22 -5 -28 0 -7 5 -1 10 12 5 13 8 26 5 28 -2 2
-6 -3 -10 -12z"/>
<path d="M1463 635 c-3 -9 -3 -18 -1 -21 3 -3 8 4 11 16 6 23 -1 27 -10 5z"/>
<path d="M442 620 c0 -14 2 -19 5 -12 2 6 2 18 0 25 -3 6 -5 1 -5 -13z"/>
<path d="M696 625 c-3 -9 -6 -24 -5 -33 0 -9 5 -4 10 12 9 32 6 48 -5 21z"/>
<path d="M1094 626 c-3 -8 -1 -22 4 -32 7 -13 9 -10 8 15 -1 34 -4 38 -12 17z"/>
<path d="M1404 608 c-4 -7 -14 -23 -22 -36 -12 -18 -12 -21 -1 -17 8 3 20 17
26 32 13 28 11 44 -3 21z"/>
<path d="M620 589 c0 -12 -7 -27 -16 -34 -13 -9 -14 -16 -6 -31 11 -19 11 -18
12 1 0 11 7 29 15 39 17 23 20 46 5 46 -5 0 -10 -10 -10 -21z"/>
<path d="M1437 590 c-3 -11 -1 -20 4 -20 5 0 9 9 9 20 0 11 -2 20 -4 20 -2 0
-6 -9 -9 -20z"/>
<path d="M657 580 c-3 -11 -2 -20 3 -20 12 0 21 28 11 35 -5 2 -11 -4 -14 -15z"/>
<path d="M1023 593 c-7 -3 -13 -14 -13 -24 0 -11 -4 -17 -10 -14 -6 3 -7 -1
-4 -10 5 -13 11 -9 26 16 20 33 20 39 1 32z"/>
<path d="M365 580 c-3 -5 -1 -10 4 -10 6 0 11 5 11 10 0 6 -2 10 -4 10 -3 0
-8 -4 -11 -10z"/>
<path d="M420 581 c0 -5 5 -13 10 -16 6 -3 10 -2 10 4 0 5 -4 13 -10 16 -5 3
-10 2 -10 -4z"/>
<path d="M75 569 c-4 -6 -5 -12 -2 -15 2 -3 7 2 10 11 7 17 1 20 -8 4z"/>
<path d="M231 564 c0 -11 3 -14 6 -6 3 7 2 16 -1 19 -3 4 -6 -2 -5 -13z"/>
<path d="M0 564 c0 -6 12 -22 28 -36 15 -14 34 -34 42 -44 22 -27 92 -80 116
-88 11 -3 26 -22 32 -40 11 -29 22 -38 65 -55 29 -10 66 -26 82 -35 17 -9 36
-16 43 -16 7 0 37 -11 65 -24 29 -14 75 -30 102 -36 28 -6 58 -13 68 -16 12
-4 17 0 17 17 0 18 -2 19 -15 9 -13 -11 -14 -10 -9 3 4 12 1 14 -17 10 -16 -4
-20 -3 -15 6 6 8 1 10 -18 5 -17 -4 -42 1 -71 15 -25 12 -49 21 -54 21 -5 0
-21 6 -36 14 -15 8 -35 12 -44 9 -9 -4 -12 -2 -8 2 10 12 -58 44 -80 39 -13
-4 -25 7 -42 35 -14 22 -27 39 -30 39 -19 -2 -24 4 -11 13 13 9 13 10 0 8 -28
-2 -59 13 -65 32 -4 10 -13 19 -21 19 -8 0 -14 5 -14 10 0 6 -6 10 -14 10 -15
0 -52 49 -48 64 2 5 -4 6 -11 3 -8 -3 -20 0 -26 6 -7 7 -11 7 -11 1z"/>
<path d="M465 559 c-4 -6 -5 -12 -2 -15 2 -3 7 2 10 11 7 17 1 20 -8 4z"/>
<path d="M536 545 c-16 -14 -27 -27 -25 -29 2 -2 19 9 37 25 39 35 29 39 -12
4z"/>
<path d="M1720 559 c0 -5 5 -7 10 -4 6 3 10 8 10 11 0 2 -4 4 -10 4 -5 0 -10
-5 -10 -11z"/>
<path d="M1410 550 c0 -5 5 -10 10 -10 6 0 10 5 10 10 0 6 -4 10 -10 10 -5 0
-10 -4 -10 -10z"/>
<path d="M210 540 c0 -5 5 -10 11 -10 5 0 7 5 4 10 -3 6 -8 10 -11 10 -2 0 -4
-4 -4 -10z"/>
<path d="M977 531 c3 -10 -1 -30 -7 -42 l-12 -24 21 22 c18 19 20 27 11 43
-14 25 -20 26 -13 1z"/>
<path d="M70 535 c0 -5 5 -17 10 -25 5 -8 10 -10 10 -5 0 6 -5 17 -10 25 -5 8
-10 11 -10 5z"/>
<path d="M410 530 c0 -5 5 -10 10 -10 6 0 10 5 10 10 0 6 -4 10 -10 10 -5 0
-10 -4 -10 -10z"/>
<path d="M660 529 c0 -5 5 -7 10 -4 6 3 10 8 10 11 0 2 -4 4 -10 4 -5 0 -10
-5 -10 -11z"/>
<path d="M1035 530 c3 -5 8 -10 11 -10 2 0 4 5 4 10 0 6 -5 10 -11 10 -5 0 -7
-4 -4 -10z"/>
<path d="M1820 530 c0 -5 5 -10 11 -10 5 0 7 5 4 10 -3 6 -8 10 -11 10 -2 0
-4 -4 -4 -10z"/>
<path d="M690 520 c0 -5 5 -10 11 -10 5 0 7 5 4 10 -3 6 -8 10 -11 10 -2 0 -4
-4 -4 -10z"/>
<path d="M1286 515 c4 -8 11 -15 16 -15 6 0 5 6 -2 15 -7 8 -14 15 -16 15 -2
0 -1 -7 2 -15z"/>
<path d="M185 512 c-5 -4 -17 -16 -25 -26 -14 -18 -14 -19 7 -5 13 7 25 19 27
26 6 15 5 16 -9 5z"/>
<path d="M535 500 c-3 -5 -1 -10 4 -10 6 0 11 5 11 10 0 6 -2 10 -4 10 -3 0
-8 -4 -11 -10z"/>
<path d="M581 474 c-6 -15 -9 -29 -7 -32 3 -2 10 8 16 23 6 15 9 29 7 31 -2 2
-9 -8 -16 -22z"/>
<path d="M1310 475 c-7 -9 -10 -18 -7 -21 3 -3 10 4 17 15 13 25 8 27 -10 6z"/>
<path d="M720 465 c0 -8 4 -15 10 -15 5 0 7 7 4 15 -4 8 -8 15 -10 15 -2 0 -4
-7 -4 -15z"/>
<path d="M1343 454 c-6 -13 -7 -24 -3 -24 9 0 25 39 18 45 -2 2 -8 -7 -15 -21z"/>
<path d="M628 445 c2 -14 6 -25 8 -25 2 0 4 11 4 25 0 14 -4 25 -9 25 -4 0 -6
-11 -3 -25z"/>
<path d="M937 443 c-4 -3 -7 -11 -7 -17 0 -6 5 -5 12 2 6 6 9 14 7 17 -3 3 -9
2 -12 -2z"/>
<path d="M556 413 c-6 -14 -5 -15 5 -6 7 7 10 15 7 18 -3 3 -9 -2 -12 -12z"/>
<path d="M1405 420 c-3 -5 -1 -10 4 -10 6 0 11 5 11 10 0 6 -2 10 -4 10 -3 0
-8 -4 -11 -10z"/>
<path d="M1240 389 c-7 -11 -10 -23 -7 -25 2 -2 9 7 15 21 14 30 7 33 -8 4z"/>
<path d="M1485 400 c-8 -13 5 -13 25 0 13 8 13 10 -2 10 -9 0 -20 -4 -23 -10z"/>
<path d="M527 384 c-4 -4 -7 -14 -7 -23 0 -11 3 -12 11 -4 6 6 10 16 7 23 -2
6 -7 8 -11 4z"/>
<path d="M1263 355 c-3 -9 -3 -18 -1 -21 3 -3 8 4 11 16 6 23 -1 27 -10 5z"/>
<path d="M820 339 c0 -5 5 -7 10 -4 6 3 10 8 10 11 0 2 -4 4 -10 4 -5 0 -10
-5 -10 -11z"/>
<path d="M1201 321 c-7 -5 -12 -14 -10 -20 2 -6 10 -2 17 9 14 22 13 23 -7 11z"/>
<path d="M1115 250 c-3 -6 1 -7 9 -4 18 7 21 14 7 14 -6 0 -13 -4 -16 -10z"/>
<path d="M1070 231 c0 -5 5 -13 10 -16 6 -3 10 -2 10 4 0 5 -4 13 -10 16 -5 3
-10 2 -10 -4z"/>
<path d="M670 174 c0 -23 43 -43 107 -49 53 -5 63 -3 71 12 9 16 5 18 -29 21
-22 1 -39 -2 -39 -8 0 -5 -8 -10 -17 -10 -15 0 -16 2 -3 10 13 9 13 10 0 11
-8 1 -26 0 -39 -1 -13 -1 -21 3 -17 8 3 5 -3 12 -14 15 -13 3 -20 0 -20 -9z"/>
<path d="M860 116 c0 -22 65 -41 103 -30 28 9 19 24 -13 20 -16 -2 -31 0 -32
4 -2 4 -15 10 -30 14 -21 5 -28 3 -28 -8z"/>
</g>
</svg>
