<?xml version="1.0" standalone="no"?>
<!DOCTYPE svg PUBLIC "-//W3C//DTD SVG 20010904//EN"
 "http://www.w3.org/TR/2001/REC-SVG-20010904/DTD/svg10.dtd">
<svg version="1.0" xmlns="http://www.w3.org/2000/svg"
 width="600.000000pt" height="230.000000pt" viewBox="0 0 600.000000 230.000000"
 preserveAspectRatio="xMidYMid meet">
<g transform="translate(0.000000,230.000000) scale(0.100000,-0.100000)"
fill="#000000" stroke="none">
<path d="M3500 1135 c0 -650 3 -985 10 -985 7 0 10 335 10 985 0 650 -3 985
-10 985 -7 0 -10 -335 -10 -985z"/>
<path d="M4195 1956 c-132 -33 -254 -134 -316 -261 -33 -68 -34 -73 -34 -195
0 -122 1 -126 34 -189 91 -176 302 -281 509 -253 150 20 272 102 373 252 19
27 36 49 39 49 3 0 20 -22 39 -50 79 -116 231 -221 362 -249 32 -7 92 -11 138
-8 67 4 93 11 153 41 180 90 278 239 278 422 0 132 -46 235 -143 320 -137 121
-333 164 -496 109 -79 -26 -186 -107 -261 -197 l-65 -79 -39 49 c-165 200
-374 288 -571 239z m260 -180 c31 -14 76 -42 100 -61 50 -42 155 -174 155
-196 0 -22 -96 -156 -151 -211 -77 -77 -117 -93 -234 -93 -87 0 -107 3 -156
26 -65 31 -120 82 -151 142 -34 63 -32 174 4 243 48 91 99 138 187 171 56 21
177 11 246 -21z m978 0 c107 -52 172 -135 184 -234 18 -153 -128 -322 -291
-339 -65 -7 -167 23 -232 67 -54 38 -142 136 -174 194 -24 45 -24 46 -7 79 56
104 180 221 266 251 68 24 186 15 254 -18z"/>
<path d="M4157 1543 c-2 -5 -2 -14 -1 -20 1 -7 2 -17 3 -23 1 -6 62 -10 161
-10 l160 0 0 30 0 30 -159 0 c-88 0 -162 -3 -164 -7z"/>
<path d="M5238 1610 l-3 -45 -42 -3 c-43 -3 -43 -3 -43 -43 l0 -39 45 0 45 0
0 -45 0 -45 40 0 40 0 0 45 0 45 45 0 45 0 0 40 0 40 -45 0 -45 0 0 44 c0 44
0 44 -40 48 l-39 3 -3 -45z"/>
<path d="M5668 1907 c5 -18 7 -19 10 -4 4 21 22 23 22 2 0 -8 9 -15 20 -15 13
0 20 7 20 18 0 15 -8 19 -39 20 -36 2 -39 0 -33 -21z"/>
<path d="M226 1510 c-57 -29 -85 -58 -112 -115 -45 -96 -27 -211 46 -283 52
-52 87 -66 167 -67 l73 0 15 -37 c13 -34 19 -38 50 -38 40 0 40 0 19 57 l-16
42 41 47 c116 132 75 334 -81 398 -53 22 -153 20 -202 -4z m149 -51 c55 -14
111 -72 121 -124 10 -53 -1 -123 -23 -153 -29 -38 -37 -37 -53 10 -11 32 -21
44 -38 46 -49 7 -54 -3 -32 -60 11 -29 20 -56 20 -60 0 -17 -84 -7 -120 13
-125 71 -104 288 33 328 43 12 42 12 92 0z"/>
<path d="M1392 1522 c-9 -7 -12 -61 -10 -238 l3 -229 32 -3 31 -3 4 223 c2
123 0 231 -4 241 -9 18 -34 22 -56 9z"/>
<path d="M1075 1366 c-68 -30 -103 -103 -92 -188 6 -48 30 -84 78 -116 28 -20
44 -23 86 -20 30 3 61 12 71 21 23 21 32 21 32 2 0 -10 10 -15 30 -15 l30 0 0
160 0 160 -30 0 c-20 0 -30 -5 -30 -15 0 -19 -9 -19 -32 1 -24 22 -105 28
-143 10z m139 -83 c33 -33 41 -73 22 -117 -28 -68 -113 -81 -161 -24 -46 54
-27 135 37 162 39 17 72 10 102 -21z"/>
<path d="M1594 1366 c-17 -8 -44 -31 -60 -52 -25 -33 -29 -46 -29 -105 0 -73
14 -103 68 -143 36 -27 124 -33 165 -12 41 21 44 27 23 54 -16 22 -18 22 -54
7 -72 -30 -132 13 -132 95 0 82 60 125 131 95 39 -16 48 -14 64 16 24 45 -102
77 -176 45z"/>
<path d="M1879 1357 c-79 -41 -109 -137 -70 -223 52 -115 218 -125 291 -18 19
29 25 50 25 93 0 72 -29 122 -89 150 -55 27 -102 26 -157 -2z m138 -63 c12 -8
27 -31 34 -52 25 -83 -49 -160 -123 -129 -44 18 -59 38 -64 84 -6 49 12 84 56
105 36 18 58 16 97 -8z"/>
<path d="M621 1263 c0 -129 12 -169 59 -201 29 -20 44 -23 87 -20 32 3 61 12
73 23 18 16 20 16 20 2 0 -13 9 -17 35 -17 l35 0 0 160 0 160 -35 0 -35 0 0
-110 c0 -104 -1 -112 -25 -135 -24 -25 -65 -32 -100 -19 -32 13 -45 59 -45
164 l0 100 -35 0 -35 0 1 -107z"/>
<path d="M2222 1318 c-11 -29 -36 -95 -56 -146 -45 -117 -45 -124 -4 -120 32
3 34 6 72 110 22 59 43 105 47 102 4 -2 24 -51 45 -109 l39 -106 34 3 c34 3
35 5 73 103 22 55 43 103 47 108 4 4 25 -42 46 -103 l40 -110 37 0 c36 0 37 0
59 68 12 37 31 87 42 112 l19 45 43 -110 c42 -109 43 -110 77 -113 l34 -3 39
103 c21 57 41 107 45 111 4 4 25 -41 46 -100 l39 -108 38 -3 c20 -2 37 0 37 5
0 4 -26 76 -58 158 l-57 150 -40 3 -40 3 -40 -111 -40 -111 -16 38 c-9 21 -29
71 -44 111 l-27 72 -38 0 c-31 0 -40 -4 -46 -22 -22 -74 -67 -188 -73 -188 -4
0 -15 24 -26 53 -58 166 -53 157 -94 157 l-38 0 -38 -105 c-20 -58 -41 -105
-45 -105 -4 0 -24 47 -45 105 l-37 105 -38 0 c-37 0 -39 -2 -58 -52z"/>
<path d="M4990 957 c0 -22 5 -26 33 -29 l32 -3 3 -107 3 -108 -36 0 c-31 0
-35 -3 -35 -25 l0 -25 100 0 100 0 0 25 c0 22 -4 25 -35 25 l-35 0 0 110 0
110 36 0 c31 0 35 3 32 22 -3 20 -10 22 -100 26 l-98 4 0 -25z"/>
<path d="M5567 951 c-81 -72 -69 -250 20 -288 119 -49 216 80 172 228 -17 55
-49 81 -107 87 -44 4 -52 1 -85 -27z m119 -56 c23 -36 16 -152 -11 -171 -26
-19 -52 -17 -75 6 -26 26 -28 133 -4 168 22 31 69 30 90 -3z"/>
<path d="M3920 868 c-17 -57 -38 -123 -46 -147 -19 -59 -18 -61 15 -61 23 0
31 6 40 30 9 28 13 30 64 30 53 0 55 -1 61 -30 5 -27 9 -30 42 -30 30 0 35 3
29 18 -3 9 -25 79 -48 155 l-41 137 -42 0 -43 0 -31 -102z m104 -72 c6 -24 4
-26 -29 -26 -45 0 -45 11 -8 120 5 14 19 -23 37 -94z"/>
<path d="M4160 815 l0 -155 30 0 30 0 0 65 c0 45 4 65 13 65 23 0 36 -16 62
-73 25 -53 29 -57 60 -57 l34 0 -26 58 c-14 31 -32 63 -39 71 -11 12 -8 19 17
42 31 29 36 57 17 92 -20 39 -40 46 -120 47 l-78 0 0 -155z m140 85 c17 -32
-4 -60 -45 -60 -34 0 -35 1 -35 40 0 39 1 40 35 40 24 0 37 -6 45 -20z"/>
<path d="M4430 815 l0 -155 60 0 c118 0 170 47 170 153 0 118 -40 157 -160
157 l-70 0 0 -155z m112 105 c27 -8 39 -18 47 -42 32 -90 -5 -168 -79 -168
-19 0 -20 8 -20 110 0 61 3 110 8 110 4 0 23 -5 44 -10z"/>
<path d="M4703 847 c2 -96 6 -129 19 -148 37 -58 127 -62 180 -9 28 28 28 29
28 154 l0 126 -30 0 -30 0 0 -119 c0 -93 -3 -121 -15 -131 -20 -16 -65 -16
-75 0 -4 7 -11 66 -15 131 l-7 119 -28 0 -29 0 2 -123z"/>
<path d="M5250 815 l0 -155 30 0 30 0 0 108 1 107 47 -107 47 -108 37 0 38 0
0 155 0 155 -25 0 c-20 0 -25 -5 -26 -27 -1 -56 -9 -166 -12 -169 -1 -2 -23
42 -47 97 l-45 99 -37 0 -38 0 0 -155z"/>
</g>
</svg>
